<?xml version="1.0" encoding="UTF-8"?>
<svg version="1.1" xmlns="http://www.w3.org/2000/svg" width="121" height="143">
<path d="M0 0 C0.33 0.66 0.66 1.32 1 2 C2.2375 2.12375 2.2375 2.12375 3.5 2.25 C11.28784411 3.91882374 17.63125822 9.47908094 22 16 C24.28000147 20.6287614 26.17760728 25.38931514 28.0625 30.1875 C28.56969782 31.45168043 29.07815473 32.71535645 29.58789062 33.97851562 C30.59266049 36.47239962 31.59156199 38.96850698 32.5859375 41.46655273 C35.44952887 48.62207033 38.44526615 55.72015795 41.48835754 62.80085754 C42.65888081 65.5270112 43.82299697 68.25587811 44.98632812 70.98510742 C45.58626607 72.38754477 46.18953952 73.78855928 46.79589844 75.18823242 C47.68278236 77.23767257 48.55736896 79.29198225 49.4296875 81.34765625 C49.94772949 82.55429932 50.46577148 83.76094238 50.99951172 85.00415039 C52 88 52 88 51 91 C43.40650732 94.00575752 35.83574669 93.88167809 28.19921875 91.04296875 C19.56108029 86.94637378 13.68984395 80.35080189 10.08178711 71.58056641 C9.01240165 69.02958373 7.87072584 66.524834 6.70703125 64.015625 C3.84056943 57.73162066 1.24508641 51.35230562 -1.3125 44.9375 C-1.76689453 43.81150391 -2.22128906 42.68550781 -2.68945312 41.52539062 C-3.33237305 39.91760742 -3.33237305 39.91760742 -3.98828125 38.27734375 C-4.37540283 37.31046631 -4.76252441 36.34358887 -5.16137695 35.34741211 C-6 33 -6 33 -6 31 C-6.66 30.67 -7.32 30.34 -8 30 C-8.68884872 27.96789627 -9.36803094 25.93211012 -10.00390625 23.8828125 C-11.63085539 19.17423027 -13.74204614 14.67270087 -15.79296875 10.13671875 C-17 7 -17 7 -17 3 C-11.35199888 1.1582605 -5.91492272 0.45224761 0 0 Z " fill="#EDEDEF" transform="translate(59,16)"/>
<path d="M0 0 C6.00891451 4.73042206 8.54201203 11.01225329 11.0625 18 C11.57376547 19.39599942 12.08547413 20.79183663 12.59765625 22.1875 C12.95585449 23.17327026 12.95585449 23.17327026 13.32128906 24.17895508 C13.90355516 25.74122947 14.53498333 27.28502639 15.17578125 28.82421875 C16.12687667 31.33493035 16.15215795 33.33723587 16 36 C6.99191237 39.06658302 -1.19135867 38.77919128 -10 35 C-16.46979044 31.26742859 -21.59759988 26.20720036 -24 19 C-24.56430864 13.30265311 -24.28586378 8.87214284 -21 4 C-14.56176456 -2.26422907 -8.25300445 -2.92581429 0 0 Z " fill="#2BB16F" transform="translate(42,71)"/>
<path d="M0 0 C1.4375 2.0625 1.4375 2.0625 2 4 C1.01 3.835 0.02 3.67 -1 3.5 C-5.02732942 2.91525483 -8.93474623 2.92867976 -13 3 C-13.33 3.99 -13.66 4.98 -14 6 C-14.66 6 -15.32 6 -16 6 C-15.67 6.99 -15.34 7.98 -15 9 C-16.32 9 -17.64 9 -19 9 C-19.33 12.63 -19.66 16.26 -20 20 C-20.33 20 -20.66 20 -21 20 C-21.34573147 14.23780888 -21.34446833 9.95903925 -18 5 C-12.64235628 -0.21284254 -7.30594651 -1.9669856 0 0 Z " fill="#288761" transform="translate(39,70)"/>
<path d="M0 0 C2.92965912 2.92965912 3.94133569 5.680053 4.125 9.8125 C4.08375 10.534375 4.0425 11.25625 4 12 C-5.35217258 15.18371832 -12.74838572 14.24482505 -22 11 C-18.25 9.875 -18.25 9.875 -16 11 C-13.11629667 11.07194869 -10.25760336 11.09291708 -7.375 11.0625 C-6.57320312 11.05798828 -5.77140625 11.05347656 -4.9453125 11.04882812 C-2.96350994 11.03703168 -0.98174567 11.01909605 1 11 C0.67 7.37 0.34 3.74 0 0 Z " fill="#114E3B" transform="translate(54,95)"/>
<path d="M0 0 C-0.33 1.32 -0.66 2.64 -1 4 C-1.66 4 -2.32 4 -3 4 C-2.67 4.99 -2.34 5.98 -2 7 C-3.32 7 -4.64 7 -6 7 C-6.33 10.63 -6.66 14.26 -7 18 C-7.33 18 -7.66 18 -8 18 C-8.40576713 11.23721448 -7.95005339 6.54006407 -3.4375 1.125 C-2 0 -2 0 0 0 Z " fill="#1E6B50" transform="translate(26,72)"/>
<path d="M0 0 C2.92965912 2.92965912 3.94133569 5.680053 4.125 9.8125 C4.08375 10.534375 4.0425 11.25625 4 12 C2.35 12 0.7 12 -1 12 C-0.34 11.67 0.32 11.34 1 11 C0.67 7.37 0.34 3.74 0 0 Z " fill="#21644C" transform="translate(54,95)"/>
<path d="" fill="#000000" transform="translate(0,0)"/>
<path d="M0 0 C2 1 2 1 2 1 Z " fill="#000000" transform="translate(21,7)"/>
<path d="" fill="#000000" transform="translate(0,0)"/>
<path d="" fill="#000000" transform="translate(0,0)"/>
<path d="" fill="#000000" transform="translate(0,0)"/>
<path d="" fill="#000000" transform="translate(0,0)"/>
<path d="" fill="#000001" transform="translate(0,0)"/>
<path d="" fill="#000000" transform="translate(0,0)"/>
<path d="" fill="#000000" transform="translate(0,0)"/>
<path d="" fill="#000000" transform="translate(0,0)"/>
<path d="" fill="#000000" transform="translate(0,0)"/>
<path d="" fill="#000000" transform="translate(0,0)"/>
<path d="" fill="#000000" transform="translate(0,0)"/>
<path d="" fill="#000000" transform="translate(0,0)"/>
<path d="" fill="#000000" transform="translate(0,0)"/>
<path d="" fill="#000000" transform="translate(0,0)"/>
<path d="" fill="#000000" transform="translate(0,0)"/>
<path d="" fill="#000000" transform="translate(0,0)"/>
<path d="" fill="#000000" transform="translate(0,0)"/>
<path d="" fill="#000000" transform="translate(0,0)"/>
<path d="" fill="#000000" transform="translate(0,0)"/>
<path d="" fill="#000000" transform="translate(0,0)"/>
<path d="" fill="#000000" transform="translate(0,0)"/>
<path d="" fill="#000000" transform="translate(0,0)"/>
<path d="" fill="#000000" transform="translate(0,0)"/>
<path d="" fill="#000000" transform="translate(0,0)"/>
<path d="" fill="#000000" transform="translate(0,0)"/>
<path d="" fill="#000000" transform="translate(0,0)"/>
<path d="" fill="#000000" transform="translate(0,0)"/>
<path d="" fill="#000000" transform="translate(0,0)"/>
<path d="" fill="#000000" transform="translate(0,0)"/>
<path d="" fill="#000000" transform="translate(0,0)"/>
<path d="" fill="#000000" transform="translate(0,0)"/>
<path d="" fill="#000000" transform="translate(0,0)"/>
<path d="" fill="#000000" transform="translate(0,0)"/>
<path d="" fill="#000000" transform="translate(0,0)"/>
<path d="" fill="#000000" transform="translate(0,0)"/>
<path d="" fill="#000000" transform="translate(0,0)"/>
<path d="" fill="#000000" transform="translate(0,0)"/>
<path d="" fill="#000000" transform="translate(0,0)"/>
<path d="" fill="#000000" transform="translate(0,0)"/>
<path d="" fill="#000000" transform="translate(0,0)"/>
<path d="" fill="#000000" transform="translate(0,0)"/>
<path d="" fill="#000000" transform="translate(0,0)"/>
<path d="" fill="#000000" transform="translate(0,0)"/>
<path d="" fill="#000000" transform="translate(0,0)"/>
<path d="" fill="#000000" transform="translate(0,0)"/>
<path d="" fill="#000000" transform="translate(0,0)"/>
<path d="" fill="#000000" transform="translate(0,0)"/>
<path d="" fill="#000000" transform="translate(0,0)"/>
<path d="" fill="#000000" transform="translate(0,0)"/>
<path d="" fill="#000000" transform="translate(0,0)"/>
<path d="" fill="#000000" transform="translate(0,0)"/>
<path d="" fill="#000000" transform="translate(0,0)"/>
</svg>
